<svg fill="none" focusable="false" height="48" viewBox="0 0 48 48" width="48" xmlns="http://www.w3.org/2000/svg" aria-hidden="true">
      <rect fill="#F6F6F9" height="48" rx="10.1053" width="48"></rect>
      <path d="M16.4211 17.6845H11.3685C10.6729 17.6845 10.1053 17.117 10.1053 16.4214C10.1053 15.7275 10.6729 15.1582 11.3685 15.1582H16.4211C17.115 15.1582 17.6843 15.7258 17.6843 16.4214C17.6843 17.117 17.115 17.6845 16.4211 17.6845Z" fill="#39134C"></path>
      <path d="M16.4211 27.7887H11.3685C10.6729 27.7887 10.1053 27.2211 10.1053 26.5255C10.1053 25.8316 10.6729 25.2623 11.3685 25.2623H16.4211C17.115 25.2623 17.6843 25.8299 17.6843 26.5255C17.6843 27.2211 17.115 27.7887 16.4211 27.7887Z" fill="#39134C"></path>
      <path d="M16.4211 32.8419H11.3685C10.6729 32.8419 10.1053 32.2743 10.1053 31.5787C10.1053 30.8848 10.6729 30.3156 11.3685 30.3156H16.4211C17.115 30.3156 17.6843 30.8831 17.6843 31.5787C17.6843 32.2743 17.115 32.8419 16.4211 32.8419Z" fill="#39134C"></path>
      <path d="M26.5267 22.7363H21.474C20.7785 22.7363 20.2109 22.1687 20.2109 21.4731C20.2109 20.7792 20.7785 20.21 21.474 20.21H26.5267C27.2206 20.21 27.7899 20.7775 27.7899 21.4731C27.7899 22.1687 27.2206 22.7363 26.5267 22.7363Z" fill="#39134C"></path>
      <path d="M26.5267 27.7887H21.474C20.7785 27.7887 20.2109 27.2211 20.2109 26.5255C20.2109 25.8316 20.7785 25.2623 21.474 25.2623H26.5267C27.2206 25.2623 27.7899 25.8299 27.7899 26.5255C27.7899 27.2211 27.2206 27.7887 26.5267 27.7887Z" fill="#39134C"></path>
      <path d="M36.6316 17.6842H31.579C30.8834 17.6842 30.3158 17.1166 30.3158 16.421C30.3158 15.7271 30.8834 15.1578 31.579 15.1578H36.6316C37.3255 15.1578 37.8948 15.7254 37.8948 16.421C37.8948 17.1166 37.3255 17.6842 36.6316 17.6842Z" fill="#39134C"></path>
      <path d="M36.6316 22.7363H31.579C30.8834 22.7363 30.3158 22.1687 30.3158 21.4731C30.3158 20.7792 30.8834 20.21 31.579 20.21H36.6316C37.3255 20.21 37.8948 20.7775 37.8948 21.4731C37.8948 22.1687 37.3255 22.7363 36.6316 22.7363Z" fill="#39134C"></path>
      <path d="M36.6316 32.8419H31.579C30.8834 32.8419 30.3158 32.2743 30.3158 31.5787C30.3158 30.8848 30.8834 30.3156 31.579 30.3156H36.6316C37.3255 30.3156 37.8948 30.8831 37.8948 31.5787C37.8948 32.2743 37.3255 32.8419 36.6316 32.8419Z" fill="#39134C"></path>
    </svg>