<?xml version="1.0" encoding="utf-8"?>
<!-- Generator: Adobe Illustrator 22.1.0, SVG Export Plug-In . SVG Version: 6.00 Build 0)  -->
<svg version="1.1" id="Layer_1" xmlns="http://www.w3.org/2000/svg" xmlns:xlink="http://www.w3.org/1999/xlink" x="0px" y="0px"
	 viewBox="0 0 80 50" style="enable-background:new 0 0 80 50;" xml:space="preserve">
<style type="text/css">
	.st0{fill:#39134C;}
	.st1{fill:#FFFFFF;}
</style>
<rect class="st0" width="80" height="50"/>
<g>
	<path class="st1" d="M8.75,21h-3C5.337,21,5,20.663,5,20.25v0c0-0.412,0.337-0.75,0.75-0.75h3c0.412,0,0.75,0.337,0.75,0.75v0
		C9.5,20.663,9.162,21,8.75,21z"/>
	<path class="st1" d="M8.75,27h-3C5.337,27,5,26.663,5,26.25v0c0-0.412,0.337-0.75,0.75-0.75h3c0.412,0,0.75,0.337,0.75,0.75v0
		C9.5,26.663,9.162,27,8.75,27z"/>
	<path class="st1" d="M8.75,30h-3C5.337,30,5,29.663,5,29.25v0c0-0.412,0.337-0.75,0.75-0.75h3c0.412,0,0.75,0.337,0.75,0.75v0
		C9.5,29.663,9.162,30,8.75,30z"/>
	<path class="st1" d="M14.75,24h-3C11.337,24,11,23.663,11,23.25v0c0-0.412,0.337-0.75,0.75-0.75h3c0.412,0,0.75,0.337,0.75,0.75v0
		C15.5,23.663,15.162,24,14.75,24z"/>
	<path class="st1" d="M14.75,27h-3C11.337,27,11,26.663,11,26.25v0c0-0.412,0.337-0.75,0.75-0.75h3c0.412,0,0.75,0.337,0.75,0.75v0
		C15.5,26.663,15.162,27,14.75,27z"/>
	<path class="st1" d="M20.75,21h-3C17.337,21,17,20.663,17,20.25v0c0-0.412,0.337-0.75,0.75-0.75h3c0.412,0,0.75,0.337,0.75,0.75v0
		C21.5,20.663,21.162,21,20.75,21z"/>
	<path class="st1" d="M20.75,24h-3C17.337,24,17,23.663,17,23.25v0c0-0.412,0.337-0.75,0.75-0.75h3c0.412,0,0.75,0.337,0.75,0.75v0
		C21.5,23.663,21.162,24,20.75,24z"/>
	<path class="st1" d="M20.75,30h-3C17.337,30,17,29.663,17,29.25v0c0-0.412,0.337-0.75,0.75-0.75h3c0.412,0,0.75,0.337,0.75,0.75v0
		C21.5,29.663,21.162,30,20.75,30z"/>
	<g>
		<path class="st1" d="M27.91,26.07c0,1.599,0.921,2.44,1.951,2.44c0.962,0,1.978-0.786,1.978-2.44c0-1.626-1.003-2.412-1.965-2.412
			C28.832,23.657,27.91,24.403,27.91,26.07 M27.91,19.497v3.917c0.42-0.705,1.233-1.437,2.561-1.437
			c1.518,0,3.293,1.274,3.293,3.998c0,2.846-1.707,4.229-3.455,4.229c-1.016,0-1.856-0.474-2.398-1.355V30H26V19.497H27.91z"/>
		<path class="st1" d="M36.663,26.11c0,1.667,1.003,2.399,1.965,2.399c1.043,0,1.965-0.691,1.965-2.399
			c0-1.653-0.921-2.453-1.951-2.453C37.679,23.657,36.663,24.416,36.663,26.11 M34.739,26.016c0-2.724,1.734-4.039,3.482-4.039
			c0.935,0,1.734,0.352,2.371,1.22v-1.003h1.91V30h-1.91v-1.098c-0.542,0.732-1.369,1.301-2.588,1.301
			C36.487,30.203,34.739,28.875,34.739,26.016"/>
		<path class="st1" d="M46.255,25.541V30h-1.91v-7.807h1.91v1.152c0.542-0.989,1.545-1.369,2.412-1.369
			c1.355,0,2.642,0.691,2.642,2.792V30h-1.91v-4.5c0-1.301-0.637-1.775-1.477-1.775C46.96,23.725,46.255,24.294,46.255,25.541"/>
		<polygon class="st1" points="53.084,19.497 53.084,30 54.98,30 54.98,28.076 56.051,26.788 58.192,30 60.305,30 57.189,25.433 
			59.885,22.194 57.745,22.194 54.98,25.799 54.98,19.497 		"/>
		<rect x="62.157" y="19.835" class="st1" width="1.965" height="10.165"/>
		<path class="st1" d="M69.718,19.835h-3.699V30h3.699c2.764,0,5.067-1.64,5.067-5.082C74.785,21.489,72.482,19.835,69.718,19.835z
			 M69.718,28.211h-1.734v-6.587h1.734c1.612,0,2.967,1.071,2.967,3.293C72.685,27.154,71.33,28.211,69.718,28.211z"/>
	</g>
</g>
</svg>
