<svg xmlns="http://www.w3.org/2000/svg" viewBox="0 0 92 15" width="92" height="15">
    <g fill="#555555">
        <g transform="translate(28 1)">
            <path d="M29.87 4H23.2c-.1 0-.2.1-.2.3v9.4c0 .2.1.3.3.3h1.4c.1 0 .3-.1.3-.3V6h4.6s.65.05 1 .4c.35.35.4 1 .4 1v6.3c0 .2.1.3.3.3h1.4c.1 0 .3-.1.3-.3V7.5c0-1-.4-1.9-1-2.5-.6-.6-1.22-1-2.13-1zM20 5c.7.7.99 1.5.99 2.4v6c0 .3-.3.6-.6.6H14c-1.68 0-3-1.4-3-3.1C11 9.2 12.32 8 14 8h5v-.6s-.05-.65-.4-1c-.35-.35-1-.4-1-.4h-5.3c-.2 0-.3-.1-.3-.3V4.3c0-.2.1-.3.3-.3h5.33c.9 0 1.69.3 2.38 1zm-.99 5H14a1 1 0 0 0-1 1c0 .5.5 1 1 1h5.02v-2zM50.7 0h-1.4c-.2 0-.3.1-.3.3v13.4c0 .2.1.3.3.3h1.4c.2 0 .3-.1.3-.3V.3c0-.2-.1-.3-.3-.3zM64 5.5v2.9c0 3.6-1.9 5.6-5.3 5.6h-5.4c-.1 0-.3-.1-.3-.3V.3c0-.2.1-.3.3-.3h5.4C62 0 64 2 64 5.5zm-2-.1C62 3.2 60.9 2 58.8 2H55v10h3.8c2.1 0 3.2-1.2 3.2-3.4V5.4zM9 5c.7.7 1 1.5 1 2.4v3.1c0 1-.3 1.8-1 2.5s-1.5 1-2.4 1H.3c-.2 0-.3-.1-.3-.3V.3C0 .1.1 0 .3 0h1.4c.2 0 .3.1.3.3v3.6s0 .1.1.1h4.4c1 0 1.8.3 2.5 1zM8 7.5c0-.4-.1-.8-.4-1.1-.3-.3-.6-.4-1-.4H2v6h4.5c.4 0 .8-.1 1.1-.4.3-.3.4-.6.4-1V7.5zm29.3.5H37V.3c0-.2-.1-.3-.3-.3h-1.4c-.1 0-.3.1-.3.3v13.4c0 .2.1.3.3.3h1.4c.1 0 .3-.1.3-.3V10h.4l4.7 3.9c.1 0 .1.1.2.1H44c.1 0 .3-.1.3-.3 0-.1 0-.2-.1-.2L39 9.2V9l5.2-4.5c.1 0 .1-.1.1-.2 0-.2-.1-.3-.3-.3h-1.8c-.1 0-.1 0-.2.1L37.3 8z"/>
        </g>
        <g transform="translate(0 1)">
            <path d="M21.7 12h-5.4c-.2 0-.3.1-.3.3v1.4c0 .2.1.3.3.3h5.4c.2 0 .3-.1.3-.3v-1.4c0-.2-.1-.3-.3-.3zm-16 0H.3c-.2 0-.3.1-.3.3v1.4c0 .2.1.3.3.3h5.4c.2 0 .3-.1.3-.3v-1.4c0-.2-.1-.3-.3-.3zm8-4H8.3c-.2 0-.3.1-.3.3v1.4c0 .2.1.3.3.3h5.4c.2 0 .3-.1.3-.3V8.3c0-.2-.1-.3-.3-.3zm-8 0H.3c-.2 0-.3.1-.3.3v1.4c0 .2.1.3.3.3h5.4c.2 0 .3-.1.3-.3V8.3c0-.2-.1-.3-.3-.3zm16-4h-5.4c-.2 0-.3.1-.3.3v1.4c0 .2.1.3.3.3h5.4c.2 0 .3-.1.3-.3V4.3c0-.1-.1-.3-.3-.3zm-8 0H8.3c-.2 0-.3.1-.3.3v1.4c0 .2.1.3.3.3h5.4c.2 0 .3-.1.3-.3V4.3c0-.1-.1-.3-.3-.3zm8-4h-5.4c-.2 0-.3.1-.3.3v1.4c0 .2.1.3.3.3h5.4c.2 0 .3-.1.3-.3V.3c0-.2-.1-.3-.3-.3zm-16 0H.3C.1 0 0 .1 0 .3v1.4c0 .2.1.3.3.3h5.4c.2 0 .3-.1.3-.3V.3c0-.2-.1-.3-.3-.3z"/>
        </g>
    </g>
</svg>