<svg xmlns="http://www.w3.org/2000/svg" viewBox="0 0 80.4 50.4"><defs><style>.cls-1{fill:#0d2250;stroke:#fff;stroke-miterlimit:10;stroke-width:0.4px;}.cls-2{fill:#fff;}</style></defs><g id="Layer_2" data-name="Layer 2"><g id="Layer_1-2" data-name="Layer 1"><rect class="cls-1" x="0.2" y="0.2" width="80" height="50" rx="2"/><path class="cls-2" d="M10.17,17.72h2.35V22h0a3.13,3.13,0,0,1,2.69-1.28c1.7,0,3.54,1.38,3.54,4.5S17,29.75,15.25,29.75a3,3,0,0,1-2.81-1.32h0v1.09H10.17Zm4.27,4.79c-1.39,0-2,1.31-2,2.75s.61,2.73,2,2.73,2-1.31,2-2.73S15.83,22.51,14.44,22.51Z"/><path class="cls-2" d="M27.7,29.52H25.46V28.33h0a3.07,3.07,0,0,1-2.62,1.42c-2.49,0-3.12-1.4-3.12-3.52V21H22V25.8c0,1.41.41,2.11,1.5,2.11,1.27,0,1.82-.72,1.82-2.46V21H27.7Z"/><path class="cls-2" d="M34.13,30.6a2.68,2.68,0,0,1-2.94,1.93,13.9,13.9,0,0,1-1.44-.08V30.51a10.39,10.39,0,0,0,1.37.09A1.11,1.11,0,0,0,31.93,29l-3-8h2.52l1.93,5.86h0L35.27,21h2.44Z"/><path class="cls-2" d="M38.52,21h.95v1.62h0a3.19,3.19,0,0,1,3-1.87c2.59,0,3.84,2.1,3.84,4.52s-1.25,4.51-3.84,4.51a3,3,0,0,1-3-1.86h0v4.77h-1Zm4,.63c-2.3,0-3,1.7-3,3.64,0,1.77.77,3.63,3,3.63,2,0,2.79-1.86,2.79-3.63S44.53,21.62,42.55,21.62Z"/><path class="cls-2" d="M47.31,23.6c.1-2,1.5-2.86,3.45-2.86,1.51,0,3.15.47,3.15,2.75V28a.55.55,0,0,0,.61.63,1.14,1.14,0,0,0,.33-.07v.88a2.87,2.87,0,0,1-.68.06C53.11,29.52,53,28.93,53,28h0a3.26,3.26,0,0,1-3.11,1.73c-1.57,0-2.86-.78-2.86-2.49,0-2.4,2.33-2.49,4.58-2.75.86-.1,1.34-.21,1.34-1.16,0-1.4-1-1.75-2.23-1.75s-2.25.59-2.28,2Zm5.55,1.26h0c-.13.25-.6.33-.88.38-1.77.32-4,.3-4,2a1.78,1.78,0,0,0,1.91,1.68,2.73,2.73,0,0,0,3-2.67Z"/><path class="cls-2" d="M61,23.49a2,2,0,0,0-2.23-1.87c-.92,0-2,.36-2,1.47,0,.92,1,1.26,1.76,1.44l1.39.31c1.2.19,2.44.88,2.44,2.37,0,1.85-1.84,2.56-3.43,2.56-2,0-3.34-.92-3.5-3h1A2.24,2.24,0,0,0,59,28.89c1,0,2.33-.43,2.33-1.61,0-1-.92-1.33-1.87-1.56l-1.33-.3c-1.36-.36-2.39-.83-2.39-2.28,0-1.74,1.71-2.4,3.21-2.4a2.8,2.8,0,0,1,3.13,2.75Z"/><path class="cls-2" d="M68.89,23.49a2,2,0,0,0-2.24-1.87c-.92,0-2,.36-2,1.47,0,.92,1,1.26,1.76,1.44l1.39.31c1.2.19,2.43.88,2.43,2.37,0,1.85-1.83,2.56-3.42,2.56-2,0-3.34-.92-3.5-3h1a2.24,2.24,0,0,0,2.51,2.13c1,0,2.33-.43,2.33-1.61,0-1-.92-1.33-1.87-1.56L66,25.42c-1.36-.36-2.39-.83-2.39-2.28,0-1.74,1.71-2.4,3.21-2.4,1.71,0,3.06.89,3.13,2.75Z"/></g></g></svg>