<svg width="147" height="27" viewBox="0 0 147 27" fill="none" xmlns="http://www.w3.org/2000/svg">
    <g clip-path="url(#clip0_510:4285)">
        <path d="M12.67 0H0.5C0.368193 0.00256007 0.242499 0.0560606 0.14928 0.14928C0.0560606 0.242499 0.00256007 0.368193 0 0.5V24.23C0 24.3626 0.0526785 24.4898 0.146447 24.5836C0.240215 24.6773 0.367392 24.73 0.5 24.73H12.67C15.8885 24.6385 18.9445 23.2956 21.1887 20.9867C23.4329 18.6778 24.6883 15.5848 24.6883 12.365C24.6883 9.14517 23.4329 6.05222 21.1887 3.74332C18.9445 1.43442 15.8885 0.0915386 12.67 0ZM13.86 21C12.0187 21.3169 10.1242 21.0395 8.45107 20.2079C6.77789 19.3764 5.4128 18.0339 4.55347 16.3748C3.69414 14.7158 3.38516 12.8263 3.67129 10.9799C3.95741 9.1335 4.82378 7.42612 6.14495 6.10495C7.46612 4.78378 9.1735 3.91741 11.0199 3.63129C12.8663 3.34516 14.7558 3.65414 16.4148 4.51347C18.0739 5.3728 19.4164 6.73789 20.2479 8.41107C21.0795 10.0842 21.3569 11.9787 21.04 13.82C20.7316 15.6119 19.8757 17.2643 18.59 18.55C17.3043 19.8357 15.6519 20.6916 13.86 21Z"
              fill="#0062B8"/>
        <path d="M35.4799 3.60011H37.6099C37.6265 3.59873 37.6431 3.6008 37.6589 3.60621C37.6746 3.61161 37.689 3.62023 37.7013 3.63152C37.7135 3.6428 37.7232 3.65651 37.7299 3.67176C37.7365 3.68701 37.7399 3.70348 37.7399 3.72011V21.0801C37.7414 21.0976 37.7391 21.1151 37.7331 21.1316C37.7271 21.1481 37.7176 21.163 37.7052 21.1754C37.6928 21.1878 37.6778 21.1973 37.6614 21.2033C37.6449 21.2093 37.6273 21.2116 37.6099 21.2101H35.4799C35.3999 21.2101 35.3599 21.1601 35.3599 21.0801V3.72011C35.3583 3.70397 35.3604 3.68768 35.3659 3.67242C35.3713 3.65716 35.3801 3.6433 35.3916 3.63183C35.4031 3.62036 35.4169 3.61157 35.4322 3.60609C35.4474 3.6006 35.4637 3.59856 35.4799 3.60011Z"
              fill="#1E2B3C"/>
        <path d="M41.28 3.72001C41.2785 3.70386 41.2805 3.68758 41.286 3.67231C41.2915 3.65705 41.3003 3.64319 41.3117 3.63172C41.3232 3.62026 41.3371 3.61146 41.3523 3.60598C41.3676 3.6005 41.3839 3.59846 41.4 3.60001H47.8C48.8886 3.53887 49.9766 3.72997 50.9791 4.15841C51.9817 4.58685 52.8718 5.24105 53.58 6.07001C54.9901 7.94185 55.6979 10.2495 55.58 12.59C55.7144 14.8772 55.0025 17.1339 53.58 18.93C52.8456 19.7171 51.9446 20.3303 50.9429 20.7248C49.9411 21.1192 48.864 21.285 47.79 21.21H41.39C41.31 21.21 41.27 21.16 41.27 21.08L41.28 3.72001ZM47.86 5.72001H43.78C43.7 5.72001 43.66 5.72001 43.66 5.85001V18.94C43.6585 18.9562 43.6605 18.9724 43.666 18.9877C43.6715 19.003 43.6803 19.0168 43.6917 19.0283C43.7032 19.0398 43.7171 19.0485 43.7323 19.054C43.7476 19.0595 43.7639 19.0616 43.78 19.06H47.86C48.5991 19.1 49.3375 18.9703 50.0187 18.6808C50.6999 18.3913 51.3058 17.9498 51.79 17.39C52.8043 15.9961 53.2963 14.29 53.18 12.57C53.2717 10.7937 52.7762 9.03666 51.77 7.57001C51.3175 6.96728 50.725 6.48384 50.0438 6.16151C49.3625 5.83917 48.613 5.68764 47.86 5.72001Z"
              fill="#1E2B3C"/>
        <path d="M67.83 15.9999H60.01C59.94 15.9999 59.94 15.9399 59.94 15.9399V13.9999C59.9384 13.9838 59.9404 13.9675 59.9459 13.9522C59.9514 13.9369 59.9602 13.9231 59.9717 13.9116C59.9831 13.9001 59.997 13.8914 60.0123 13.8859C60.0275 13.8804 60.0438 13.8783 60.06 13.8799H67.88C67.8961 13.8783 67.9124 13.8804 67.9276 13.8859C67.9429 13.8914 67.9568 13.9001 67.9682 13.9116C67.9797 13.9231 67.9885 13.9369 67.994 13.9522C67.9995 13.9675 68.0015 13.9838 68 13.9999V15.9399C68 16.0199 68 16.0499 67.88 16.0499"
              fill="#1E2B3C"/>
        <path d="M72.7799 8.5598H74.6599C74.6599 8.5598 74.7399 8.5598 74.7799 8.6798L75.0299 9.6798C75.0299 9.7398 75.1099 9.7798 75.1599 9.7798C75.185 9.77762 75.2092 9.76915 75.2301 9.75517C75.2511 9.74119 75.2682 9.72214 75.2799 9.6998C75.7253 9.25758 76.2608 8.91651 76.8499 8.6998C77.4826 8.42738 78.1613 8.27805 78.8499 8.2598C79.6624 8.22735 80.4721 8.37351 81.222 8.68797C81.9718 9.00243 82.6436 9.47754 83.1899 10.0798C84.3075 11.4067 84.8826 13.1069 84.7999 14.8398C84.8816 16.5726 84.3066 18.2724 83.1899 19.5998C82.644 20.2019 81.972 20.6762 81.2219 20.9891C80.4717 21.3019 79.6619 21.4456 78.8499 21.4098C78.0967 21.4231 77.3507 21.2623 76.6699 20.9398C76.1591 20.7161 75.6892 20.4085 75.2799 20.0298C75.2099 19.9698 75.1599 19.9498 75.1099 19.9698C75.0599 19.9898 75.0299 20.0298 75.0299 20.0798V26.0798C75.0299 26.1598 75.0299 26.1998 74.8999 26.2098H72.7799C72.6899 26.2098 72.6499 26.2098 72.6499 26.0798V8.6798C72.6499 8.5998 72.6499 8.5598 72.7799 8.5598ZM82.4299 14.8798C82.4888 13.7219 82.1344 12.5806 81.4299 11.6598C81.0948 11.2571 80.6717 10.9367 80.1931 10.7235C79.7146 10.5102 79.1934 10.4097 78.6699 10.4298C78.1496 10.3929 77.6282 10.4849 77.152 10.6977C76.6758 10.9105 76.2595 11.2375 75.9399 11.6498C75.2767 12.5922 74.9459 13.7286 74.9999 14.8798C74.9553 16.0359 75.3082 17.1724 75.9999 18.0998C76.3121 18.5026 76.717 18.8238 77.1802 19.0363C77.6433 19.2487 78.151 19.346 78.6599 19.3198C79.1831 19.3376 79.7035 19.2361 80.1817 19.023C80.6599 18.8099 81.0833 18.4908 81.4199 18.0898C82.123 17.172 82.4773 16.0345 82.4199 14.8798"
              fill="#1E2B3C"/>
        <path d="M99.5 14.8798C99.5848 16.6247 98.9898 18.3345 97.84 19.6498C96.6073 20.8063 94.9804 21.45 93.29 21.45C91.5997 21.45 89.9728 20.8063 88.74 19.6498C87.5939 18.333 87.0025 16.6233 87.09 14.8798C87.0046 13.1365 87.5957 11.4277 88.74 10.1098C89.3228 9.50092 90.0301 9.02493 90.8136 8.71429C91.5971 8.40365 92.4384 8.26568 93.28 8.30979C94.1238 8.2661 94.9671 8.4032 95.7535 8.71191C96.5399 9.02062 97.2513 9.49381 97.84 10.0998C98.9868 11.4208 99.5812 13.1324 99.5 14.8798ZM96.09 18.0898C96.7987 17.1749 97.1537 16.0352 97.09 14.8798C97.1537 13.7243 96.7987 12.5847 96.09 11.6698C95.7529 11.2643 95.3265 10.9423 94.8442 10.7289C94.362 10.5156 93.8369 10.4166 93.31 10.4398C92.7815 10.4183 92.2549 10.5169 91.7699 10.7283C91.285 10.9396 90.8542 11.2581 90.51 11.6598C89.8031 12.5794 89.4484 13.7215 89.51 14.8798C89.4464 16.0352 89.8014 17.1749 90.51 18.0898C90.8523 18.4945 91.2824 18.8157 91.7677 19.0289C92.2529 19.242 92.7805 19.3415 93.31 19.3198C93.8369 19.343 94.362 19.244 94.8442 19.0306C95.3265 18.8173 95.7529 18.4953 96.09 18.0898Z"
              fill="#1E2B3C"/>
        <path d="M109.24 10.4299H107.94C107.48 10.4178 107.024 10.5116 106.606 10.704C106.188 10.8965 105.82 11.1825 105.53 11.5399C104.92 12.2927 104.603 13.2415 104.64 14.2099V21.0799C104.64 21.1599 104.64 21.1999 104.51 21.1999H102.38C102.364 21.2015 102.348 21.1995 102.332 21.194C102.317 21.1885 102.303 21.1797 102.292 21.1682C102.28 21.1568 102.271 21.1429 102.266 21.1276C102.261 21.1124 102.258 21.0961 102.26 21.0799V8.67995C102.258 8.6638 102.261 8.64752 102.266 8.63226C102.271 8.61699 102.28 8.60313 102.292 8.59166C102.303 8.5802 102.317 8.57141 102.332 8.56592C102.348 8.56044 102.364 8.5584 102.38 8.55995H104.26C104.31 8.55995 104.35 8.55995 104.39 8.67995L104.64 9.79995C104.693 9.95328 104.783 9.95328 104.91 9.79995C105.285 9.36002 105.743 8.9984 106.257 8.73584C106.772 8.47329 107.334 8.31496 107.91 8.26995H109.18C109.197 8.26856 109.213 8.27064 109.229 8.27604C109.245 8.28145 109.259 8.29007 109.271 8.30136C109.284 8.31264 109.293 8.32634 109.3 8.34159C109.307 8.35685 109.31 8.37331 109.31 8.38995V10.2699C109.31 10.3599 109.26 10.3999 109.18 10.3999"
              fill="#1E2B3C"/>
        <path d="M118.21 19.2002V21.0802C118.211 21.0976 118.209 21.1152 118.203 21.1317C118.197 21.1481 118.188 21.1631 118.175 21.1755C118.163 21.1879 118.148 21.1974 118.131 21.2034C118.115 21.2094 118.097 21.2117 118.08 21.2102H116.16C113.98 21.2102 112.88 20.2702 112.88 18.2102V10.5602C112.881 10.5427 112.879 10.5251 112.873 10.5087C112.867 10.4922 112.858 10.4773 112.845 10.4649C112.833 10.4525 112.818 10.4429 112.801 10.437C112.785 10.431 112.767 10.4286 112.75 10.4302H110.53C110.45 10.4302 110.41 10.4302 110.41 10.3002V8.68018C110.408 8.66403 110.41 8.64775 110.416 8.63248C110.421 8.61722 110.43 8.60336 110.442 8.59189C110.453 8.58042 110.467 8.57163 110.482 8.56615C110.497 8.56067 110.514 8.55863 110.53 8.56018H112.75C112.768 8.56199 112.787 8.55953 112.804 8.55298C112.822 8.54642 112.837 8.53596 112.85 8.52241C112.862 8.50886 112.872 8.49258 112.877 8.47484C112.882 8.45711 112.883 8.4384 112.88 8.42018V5.06018C112.88 4.97018 112.88 4.93018 113.01 4.93018H115.13C115.22 4.93018 115.26 4.93018 115.26 5.06018V8.42018C115.257 8.43752 115.258 8.4553 115.263 8.47226C115.267 8.48921 115.276 8.50492 115.287 8.51828C115.299 8.53164 115.313 8.54232 115.329 8.54956C115.345 8.5568 115.362 8.56042 115.38 8.56018H118.08C118.097 8.55879 118.113 8.56087 118.129 8.56627C118.145 8.57168 118.159 8.5803 118.171 8.59158C118.184 8.60287 118.193 8.61657 118.2 8.63182C118.207 8.64707 118.21 8.66354 118.21 8.68018V10.3002C118.21 10.3902 118.21 10.4302 118.08 10.4302H115.38C115.3 10.4302 115.26 10.4302 115.26 10.5602V17.8402C115.26 18.6702 115.71 19.0802 116.61 19.0802H118.08C118.17 19.0802 118.21 19.0802 118.21 19.2002Z"
              fill="#1E2B3C"/>
        <path d="M131.85 14.8802C131.85 15.4402 131.79 15.7202 131.67 15.7202H122.53C122.45 15.7202 122.41 15.7202 122.41 15.8602C122.406 16.3221 122.495 16.7802 122.671 17.207C122.848 17.6338 123.109 18.0207 123.438 18.3446C123.768 18.6684 124.159 18.9226 124.589 19.0919C125.019 19.2612 125.478 19.3423 125.94 19.3302C126.583 19.3799 127.226 19.2408 127.791 18.9299C128.356 18.619 128.818 18.1499 129.12 17.5802C129.129 17.545 129.15 17.5139 129.179 17.4921C129.208 17.4703 129.244 17.459 129.28 17.4602H131.28C131.37 17.4602 131.41 17.4602 131.41 17.5802C131.129 18.7519 130.414 19.7737 129.41 20.4402C128.346 21.1374 127.091 21.4868 125.82 21.4402C125.013 21.4743 124.208 21.3297 123.463 21.0168C122.718 20.7039 122.051 20.2305 121.51 19.6302C120.395 18.2947 119.823 16.588 119.91 14.8502C119.82 13.128 120.368 11.433 121.45 10.0902C122.013 9.47078 122.711 8.98839 123.489 8.67987C124.267 8.37136 125.105 8.2449 125.94 8.31017C126.758 8.25722 127.577 8.39084 128.336 8.70093C129.095 9.01103 129.773 9.48948 130.32 10.1002C131.37 11.4652 131.899 13.1602 131.81 14.8802H131.85ZM129.43 13.7302C129.422 12.888 129.102 12.0788 128.53 11.4602C128.2 11.1145 127.797 10.8457 127.351 10.6729C126.906 10.5 126.427 10.4274 125.95 10.4602C125.457 10.4365 124.964 10.524 124.509 10.7161C124.054 10.9082 123.647 11.2001 123.32 11.5702C122.749 12.1573 122.411 12.9322 122.37 13.7502C122.37 13.8402 122.37 13.8802 122.49 13.8802H129.3C129.318 13.8817 129.335 13.8794 129.352 13.8734C129.368 13.8674 129.383 13.8579 129.395 13.8455C129.408 13.8331 129.417 13.8181 129.423 13.8017C129.429 13.7852 129.432 13.7676 129.43 13.7502"
              fill="#1E2B3C"/>
        <path d="M135.04 8.55997H136.94C136.99 8.55997 137.03 8.55997 137.07 8.67997L137.32 9.79997C137.329 9.82984 137.347 9.8559 137.373 9.87401C137.398 9.89212 137.429 9.90126 137.46 9.89997C137.487 9.90232 137.515 9.89703 137.54 9.88468C137.564 9.87233 137.585 9.85339 137.6 9.82997C137.973 9.32108 138.468 8.91421 139.039 8.64683C139.611 8.37946 140.24 8.26017 140.87 8.29997C141.618 8.25911 142.367 8.38708 143.059 8.67442C143.751 8.96176 144.37 9.40112 144.87 9.95997C145.851 11.1538 146.36 12.666 146.3 14.21V21.08C146.3 21.16 146.25 21.2 146.16 21.2H144.04C144.024 21.2015 144.008 21.1995 143.992 21.194C143.977 21.1885 143.963 21.1797 143.952 21.1683C143.94 21.1568 143.931 21.1429 143.926 21.1277C143.92 21.1124 143.918 21.0961 143.92 21.08V14.21C143.948 13.2492 143.671 12.3042 143.13 11.51C142.846 11.1455 142.477 10.8563 142.055 10.668C141.633 10.4797 141.171 10.3979 140.71 10.43C140.234 10.4076 139.76 10.4962 139.324 10.6889C138.888 10.8815 138.504 11.1729 138.2 11.54C137.595 12.2961 137.276 13.2417 137.3 14.21V21.08C137.301 21.0961 137.299 21.1124 137.294 21.1277C137.288 21.1429 137.28 21.1568 137.268 21.1683C137.257 21.1797 137.243 21.1885 137.228 21.194C137.212 21.1995 137.196 21.2015 137.18 21.2H135.04C135.024 21.2015 135.008 21.1995 134.992 21.194C134.977 21.1885 134.963 21.1797 134.952 21.1683C134.94 21.1568 134.931 21.1429 134.926 21.1277C134.92 21.1124 134.918 21.0961 134.92 21.08V8.67997C134.918 8.66383 134.92 8.64754 134.926 8.63228C134.931 8.61701 134.94 8.60315 134.952 8.59168C134.963 8.58022 134.977 8.57143 134.992 8.56594C135.008 8.56046 135.024 8.55842 135.04 8.55997Z"
              fill="#1E2B3C"/>
    </g>
    <defs>
        <clipPath id="clip0_510:4285">
            <rect width="146.29" height="26.16" fill="white"/>
        </clipPath>
    </defs>
</svg>
