<svg width="25" height="25" viewBox="0 0 25 25" fill="none" xmlns="http://www.w3.org/2000/svg">
    <g clip-path="url(#clip0_44:1969)">
        <path d="M12.67 0H0.5C0.367392 0 0.240215 0.0526785 0.146447 0.146447C0.0526785 0.240215 0 0.367392 0 0.5V24.24C0 24.3726 0.0526785 24.4998 0.146447 24.5936C0.240215 24.6873 0.367392 24.74 0.5 24.74H12.67C15.8885 24.6485 18.9445 23.3056 21.1887 20.9967C23.4329 18.6878 24.6883 15.5948 24.6883 12.375C24.6883 9.15517 23.4329 6.06222 21.1887 3.75332C18.9445 1.44442 15.8885 0.101539 12.67 0.0100002V0ZM13.86 21.01C12.0187 21.3269 10.1242 21.0495 8.45107 20.2179C6.77789 19.3864 5.4128 18.0439 4.55347 16.3848C3.69414 14.7258 3.38516 12.8363 3.67129 10.9899C3.95741 9.1435 4.82378 7.43612 6.14495 6.11495C7.46612 4.79378 9.1735 3.92741 11.0199 3.64129C12.8663 3.35516 14.7558 3.66414 16.4148 4.52347C18.0739 5.3828 19.4164 6.74789 20.2479 8.42106C21.0795 10.0942 21.3569 11.9887 21.04 13.83C20.7316 15.6219 19.8757 17.2743 18.59 18.56C17.3043 19.8457 15.6519 20.7016 13.86 21.01Z"
              fill="#0062B8"/>
    </g>
    <defs>
        <clipPath id="clip0_44:1969">
            <rect width="24.69" height="24.74" fill="white"/>
        </clipPath>
    </defs>
</svg>
