<svg width="147" height="27" viewBox="0 0 147 27" fill="none" xmlns="http://www.w3.org/2000/svg">
    <g clip-path="url(#clip0_510:4286)">
        <path d="M12.67 0.160156H0.5C0.368193 0.162716 0.242499 0.216217 0.14928 0.309436C0.0560606 0.402655 0.00256007 0.52835 0 0.660156V24.3902C0 24.5228 0.0526785 24.6499 0.146447 24.7437C0.240215 24.8375 0.367392 24.8902 0.5 24.8902H12.67C15.8885 24.7986 18.9445 23.4557 21.1887 21.1468C23.4329 18.8379 24.6883 15.745 24.6883 12.5252C24.6883 9.30532 23.4329 6.21238 21.1887 3.90348C18.9445 1.59458 15.8885 0.251695 12.67 0.160156ZM13.86 21.1602C12.0187 21.477 10.1242 21.1996 8.45107 20.3681C6.77789 19.5366 5.4128 18.1941 4.55347 16.535C3.69414 14.8759 3.38516 12.9864 3.67129 11.14C3.95741 9.29366 4.82378 7.58627 6.14495 6.26511C7.46612 4.94394 9.1735 4.07757 11.0199 3.79144C12.8663 3.50532 14.7558 3.81429 16.4148 4.67363C18.0739 5.53296 19.4164 6.89805 20.2479 8.57122C21.0795 10.2444 21.3569 12.1388 21.04 13.9802C20.7316 15.7721 19.8757 17.4245 18.59 18.7102C17.3043 19.9959 15.6519 20.8518 13.86 21.1602Z"
              fill="white"/>
        <path d="M35.4799 3.76027H37.6099C37.6265 3.75888 37.6431 3.76096 37.6589 3.76636C37.6746 3.77177 37.689 3.78039 37.7013 3.79167C37.7135 3.80296 37.7232 3.81666 37.7299 3.83191C37.7365 3.84716 37.7399 3.86363 37.7399 3.88027V21.2403C37.7414 21.2577 37.7391 21.2753 37.7331 21.2918C37.7271 21.3082 37.7176 21.3232 37.7052 21.3356C37.6928 21.348 37.6778 21.3575 37.6614 21.3635C37.6449 21.3695 37.6273 21.3718 37.6099 21.3703H35.4799C35.3999 21.3703 35.3599 21.3203 35.3599 21.2403V3.88027C35.3583 3.86412 35.3604 3.84784 35.3659 3.83258C35.3713 3.81731 35.3801 3.80345 35.3916 3.79198C35.4031 3.78052 35.4169 3.77173 35.4322 3.76624C35.4474 3.76076 35.4637 3.75872 35.4799 3.76027Z"
              fill="white"/>
        <path d="M41.28 3.88016C41.2785 3.86402 41.2805 3.84773 41.286 3.83247C41.2915 3.81721 41.3003 3.80335 41.3117 3.79188C41.3232 3.78041 41.3371 3.77162 41.3523 3.76614C41.3676 3.76065 41.3839 3.75861 41.4 3.76016H47.8C48.8886 3.69903 49.9766 3.89013 50.9791 4.31857C51.9817 4.74701 52.8718 5.4012 53.58 6.23016C54.9901 8.102 55.6979 10.4096 55.58 12.7502C55.7144 15.0374 55.0025 17.2941 53.58 19.0902C52.8456 19.8773 51.9446 20.4905 50.9429 20.8849C49.9411 21.2794 48.864 21.4452 47.79 21.3702H41.39C41.31 21.3702 41.27 21.3202 41.27 21.2402L41.28 3.88016ZM47.86 5.88016H43.78C43.7 5.88016 43.66 5.88016 43.66 6.01016V19.1002C43.6585 19.1163 43.6605 19.1326 43.666 19.1479C43.6715 19.1631 43.6803 19.177 43.6917 19.1884C43.7032 19.1999 43.7171 19.2087 43.7323 19.2142C43.7476 19.2197 43.7639 19.2217 43.78 19.2202H47.86C48.5991 19.2601 49.3375 19.1304 50.0187 18.8409C50.6999 18.5515 51.3058 18.1099 51.79 17.5502C52.8043 16.1562 53.2963 14.4501 53.18 12.7302C53.2717 10.9539 52.7762 9.19682 51.77 7.73016C51.3175 7.12744 50.725 6.644 50.0438 6.32166C49.3625 5.99933 48.613 5.84779 47.86 5.88016Z"
              fill="white"/>
        <path d="M67.83 16.1601H60.01C59.94 16.1601 59.94 16.1001 59.94 16.1001V14.1601C59.9384 14.1439 59.9404 14.1276 59.9459 14.1124C59.9514 14.0971 59.9602 14.0832 59.9717 14.0718C59.9831 14.0603 59.997 14.0515 60.0123 14.046C60.0275 14.0405 60.0438 14.0385 60.06 14.0401H67.88C67.8961 14.0385 67.9124 14.0405 67.9276 14.046C67.9429 14.0515 67.9568 14.0603 67.9682 14.0718C67.9797 14.0832 67.9885 14.0971 67.994 14.1124C67.9995 14.1276 68.0015 14.1439 68 14.1601V16.1001C68 16.1801 68 16.2101 67.88 16.2101"
              fill="white"/>
        <path d="M72.7799 8.71996H74.6599C74.6599 8.71996 74.7399 8.71996 74.7799 8.83996L75.0299 9.83996C75.0299 9.89996 75.1099 9.93996 75.1599 9.93996C75.185 9.93778 75.2092 9.92931 75.2301 9.91532C75.2511 9.90134 75.2682 9.8823 75.2799 9.85996C75.7253 9.41774 76.2608 9.07667 76.8499 8.85996C77.4826 8.58754 78.1613 8.4382 78.8499 8.41996C79.6624 8.38751 80.4721 8.53367 81.222 8.84813C81.9718 9.16259 82.6436 9.63769 83.1899 10.24C84.3075 11.5669 84.8826 13.267 84.7999 15C84.8816 16.7327 84.3066 18.4325 83.1899 19.76C82.644 20.362 81.972 20.8364 81.2219 21.1492C80.4717 21.4621 79.6619 21.6057 78.8499 21.57C78.0967 21.5833 77.3507 21.4224 76.6699 21.1C76.1591 20.8763 75.6892 20.5687 75.2799 20.19C75.2099 20.13 75.1599 20.11 75.1099 20.13C75.0599 20.15 75.0299 20.19 75.0299 20.24V26.24C75.0299 26.32 75.0299 26.36 74.8999 26.37H72.7799C72.6899 26.37 72.6499 26.37 72.6499 26.24V8.83996C72.6499 8.75996 72.6499 8.71996 72.7799 8.71996ZM82.4299 15.04C82.4888 13.882 82.1344 12.7408 81.4299 11.82C81.0948 11.4172 80.6717 11.0969 80.1931 10.8836C79.7146 10.6703 79.1934 10.5699 78.6699 10.59C78.1496 10.553 77.6282 10.645 77.152 10.8578C76.6758 11.0707 76.2595 11.3977 75.9399 11.81C75.2767 12.7524 74.9459 13.8888 74.9999 15.04C74.9553 16.196 75.3082 17.3325 75.9999 18.26C76.3121 18.6627 76.717 18.984 77.1802 19.1964C77.6433 19.4089 78.151 19.5061 78.6599 19.48C79.1831 19.4978 79.7035 19.3963 80.1817 19.1832C80.6599 18.9701 81.0833 18.6509 81.4199 18.25C82.123 17.3322 82.4773 16.1946 82.4199 15.04"
              fill="white"/>
        <path d="M99.5 15.0399C99.5848 16.7848 98.9898 18.4947 97.84 19.8099C96.6073 20.9665 94.9804 21.6102 93.29 21.6102C91.5997 21.6102 89.9728 20.9665 88.74 19.8099C87.5939 18.4931 87.0025 16.7835 87.09 15.0399C87.0046 13.2967 87.5957 11.5878 88.74 10.2699C89.3228 9.66107 90.0301 9.18508 90.8136 8.87445C91.5971 8.56381 92.4384 8.42584 93.28 8.46994C94.1238 8.42625 94.9671 8.56336 95.7535 8.87207C96.5399 9.18078 97.2513 9.65397 97.84 10.2599C98.9868 11.5809 99.5812 13.2925 99.5 15.0399ZM96.09 18.2499C96.7987 17.3351 97.1537 16.1954 97.09 15.0399C97.1537 13.8845 96.7987 12.7448 96.09 11.8299C95.7529 11.4245 95.3265 11.1025 94.8442 10.8891C94.362 10.6757 93.8369 10.5768 93.31 10.5999C92.7815 10.5785 92.2549 10.6771 91.7699 10.8884C91.285 11.0997 90.8542 11.4182 90.51 11.8199C89.8031 12.7396 89.4484 13.8817 89.51 15.0399C89.4464 16.1954 89.8014 17.3351 90.51 18.2499C90.8523 18.6547 91.2824 18.9758 91.7677 19.189C92.2529 19.4022 92.7805 19.5017 93.31 19.4799C93.8369 19.5031 94.362 19.4042 94.8442 19.1908C95.3265 18.9774 95.7529 18.6554 96.09 18.2499Z"
              fill="white"/>
        <path d="M109.24 10.5901H107.94C107.48 10.5779 107.024 10.6717 106.606 10.8642C106.188 11.0567 105.82 11.3427 105.53 11.7001C104.92 12.4529 104.603 13.4017 104.64 14.3701V21.2401C104.64 21.3201 104.64 21.3601 104.51 21.3601H102.38C102.364 21.3617 102.348 21.3596 102.332 21.3541C102.317 21.3486 102.303 21.3399 102.292 21.3284C102.28 21.3169 102.271 21.3031 102.266 21.2878C102.261 21.2725 102.258 21.2562 102.26 21.2401V8.8401C102.258 8.82396 102.261 8.80768 102.266 8.79241C102.271 8.77715 102.28 8.76329 102.292 8.75182C102.303 8.74035 102.317 8.73156 102.332 8.72608C102.348 8.7206 102.364 8.71856 102.38 8.7201H104.26C104.31 8.7201 104.35 8.7201 104.39 8.8401L104.64 9.96011C104.693 10.1134 104.783 10.1134 104.91 9.96011C105.285 9.52017 105.743 9.15855 106.257 8.896C106.772 8.63344 107.334 8.47512 107.91 8.4301H109.18C109.197 8.42872 109.213 8.43079 109.229 8.4362C109.245 8.44161 109.259 8.45023 109.271 8.46151C109.284 8.4728 109.293 8.4865 109.3 8.50175C109.307 8.517 109.31 8.53347 109.31 8.5501V10.4301C109.31 10.5201 109.26 10.5601 109.18 10.5601"
              fill="white"/>
        <path d="M118.21 19.3603V21.2403C118.211 21.2578 118.209 21.2754 118.203 21.2918C118.197 21.3083 118.188 21.3233 118.175 21.3356C118.163 21.348 118.148 21.3576 118.131 21.3636C118.115 21.3695 118.097 21.3719 118.08 21.3703H116.16C113.98 21.3703 112.88 20.4303 112.88 18.3703V10.7203C112.881 10.7029 112.879 10.6853 112.873 10.6688C112.867 10.6524 112.858 10.6374 112.845 10.625C112.833 10.6126 112.818 10.6031 112.801 10.5971C112.785 10.5911 112.767 10.5888 112.75 10.5903H110.53C110.45 10.5903 110.41 10.5903 110.41 10.4603V8.84033C110.408 8.82419 110.41 8.8079 110.416 8.79264C110.421 8.77738 110.43 8.76352 110.442 8.75205C110.453 8.74058 110.467 8.73179 110.482 8.72631C110.497 8.72082 110.514 8.71878 110.53 8.72033H112.75C112.768 8.72215 112.787 8.71968 112.804 8.71313C112.822 8.70658 112.837 8.69612 112.85 8.68257C112.862 8.66901 112.872 8.65273 112.877 8.635C112.882 8.61726 112.883 8.59855 112.88 8.58033V5.22033C112.88 5.13033 112.88 5.09033 113.01 5.09033H115.13C115.22 5.09033 115.26 5.09033 115.26 5.22033V8.58033C115.257 8.59768 115.258 8.61546 115.263 8.63241C115.267 8.64937 115.276 8.66508 115.287 8.67844C115.299 8.6918 115.313 8.70247 115.329 8.70971C115.345 8.71695 115.362 8.72058 115.38 8.72033H118.08C118.097 8.71895 118.113 8.72102 118.129 8.72643C118.145 8.73183 118.159 8.74045 118.171 8.75174C118.184 8.76302 118.193 8.77673 118.2 8.79198C118.207 8.80723 118.21 8.8237 118.21 8.84033V10.4603C118.21 10.5503 118.21 10.5903 118.08 10.5903H115.38C115.3 10.5903 115.26 10.5903 115.26 10.7203V18.0003C115.26 18.8303 115.71 19.2403 116.61 19.2403H118.08C118.17 19.2403 118.21 19.2403 118.21 19.3603Z"
              fill="white"/>
        <path d="M131.85 15.0403C131.85 15.6003 131.79 15.8803 131.67 15.8803H122.53C122.45 15.8803 122.41 15.8803 122.41 16.0203C122.406 16.4823 122.495 16.9403 122.671 17.3672C122.848 17.794 123.109 18.1809 123.438 18.5047C123.768 18.8286 124.159 19.0827 124.589 19.2521C125.019 19.4214 125.478 19.5024 125.94 19.4903C126.583 19.5401 127.226 19.401 127.791 19.0901C128.356 18.7792 128.818 18.3101 129.12 17.7403C129.129 17.7051 129.15 17.6741 129.179 17.6522C129.208 17.6304 129.244 17.6192 129.28 17.6203H131.28C131.37 17.6203 131.41 17.6203 131.41 17.7403C131.129 18.9121 130.414 19.9339 129.41 20.6003C128.346 21.2975 127.091 21.647 125.82 21.6003C125.013 21.6344 124.208 21.4899 123.463 21.177C122.718 20.8641 122.051 20.3906 121.51 19.7903C120.395 18.4548 119.823 16.7481 119.91 15.0103C119.82 13.2881 120.368 11.5931 121.45 10.2503C122.013 9.63094 122.711 9.14854 123.489 8.84003C124.267 8.53152 125.105 8.40506 125.94 8.47032C126.758 8.41738 127.577 8.551 128.336 8.86109C129.095 9.17118 129.773 9.64964 130.32 10.2603C131.37 11.6253 131.899 13.3204 131.81 15.0403H131.85ZM129.43 13.8903C129.422 13.0481 129.102 12.2389 128.53 11.6203C128.2 11.2746 127.797 11.0058 127.351 10.833C126.906 10.6602 126.427 10.5876 125.95 10.6203C125.457 10.5967 124.964 10.6841 124.509 10.8762C124.054 11.0683 123.647 11.3602 123.32 11.7303C122.749 12.3174 122.411 13.0924 122.37 13.9103C122.37 14.0003 122.37 14.0403 122.49 14.0403H129.3C129.318 14.0419 129.335 14.0395 129.352 14.0335C129.368 14.0276 129.383 14.018 129.395 14.0056C129.408 13.9932 129.417 13.9783 129.423 13.9618C129.429 13.9454 129.432 13.9278 129.43 13.9103"
              fill="white"/>
        <path d="M135.04 8.72013H136.94C136.99 8.72013 137.03 8.72013 137.07 8.84013L137.32 9.96013C137.329 9.99 137.347 10.0161 137.373 10.0342C137.398 10.0523 137.429 10.0614 137.46 10.0601C137.487 10.0625 137.515 10.0572 137.54 10.0448C137.564 10.0325 137.585 10.0136 137.6 9.99012C137.973 9.48123 138.468 9.07436 139.039 8.80699C139.611 8.53961 140.24 8.42033 140.87 8.46013C141.618 8.41926 142.367 8.54724 143.059 8.83458C143.751 9.12192 144.37 9.56127 144.87 10.1201C145.851 11.3139 146.36 12.8262 146.3 14.3701V21.2401C146.3 21.3201 146.25 21.3601 146.16 21.3601H144.04C144.024 21.3617 144.008 21.3596 143.992 21.3541C143.977 21.3487 143.963 21.3399 143.952 21.3284C143.94 21.3169 143.931 21.3031 143.926 21.2878C143.92 21.2726 143.918 21.2563 143.92 21.2401V14.3701C143.948 13.4094 143.671 12.4644 143.13 11.6701C142.846 11.3056 142.477 11.0165 142.055 10.8281C141.633 10.6398 141.171 10.5581 140.71 10.5901C140.234 10.5677 139.76 10.6564 139.324 10.849C138.888 11.0417 138.504 11.3331 138.2 11.7001C137.595 12.4563 137.276 13.4019 137.3 14.3701V21.2401C137.301 21.2563 137.299 21.2726 137.294 21.2878C137.288 21.3031 137.28 21.3169 137.268 21.3284C137.257 21.3399 137.243 21.3487 137.228 21.3541C137.212 21.3596 137.196 21.3617 137.18 21.3601H135.04C135.024 21.3617 135.008 21.3596 134.992 21.3541C134.977 21.3487 134.963 21.3399 134.952 21.3284C134.94 21.3169 134.931 21.3031 134.926 21.2878C134.92 21.2726 134.918 21.2563 134.92 21.2401V8.84013C134.918 8.82398 134.92 8.8077 134.926 8.79243C134.931 8.77717 134.94 8.76331 134.952 8.75184C134.963 8.74037 134.977 8.73158 134.992 8.7261C135.008 8.72062 135.024 8.71858 135.04 8.72013Z"
              fill="white"/>
    </g>
    <defs>
        <clipPath id="clip0_510:4286">
            <rect width="146.29" height="26.16" fill="white" transform="translate(0 0.160156)"/>
        </clipPath>
    </defs>
</svg>
